<svg xmlns="http://www.w3.org/2000/svg" xmlns:xlink="http://www.w3.org/1999/xlink" width="500" zoomAndPan="magnify" viewBox="0 0 375 374.999991" height="500" preserveAspectRatio="xMidYMid meet" version="1.0"><defs><clipPath id="c0eb716d93"><path d="M 18.527344 15.738281 L 361 15.738281 L 361 349.777344 L 18.527344 349.777344 Z M 18.527344 15.738281 " clip-rule="nonzero"/></clipPath><clipPath id="e4f1675e27"><path d="M 35.777344 15.738281 L 343.6875 15.738281 C 348.261719 15.738281 352.648438 17.554688 355.886719 20.789062 C 359.121094 24.023438 360.9375 28.410156 360.9375 32.988281 L 360.9375 332.527344 C 360.9375 337.101562 359.121094 341.488281 355.886719 344.722656 C 352.648438 347.960938 348.261719 349.777344 343.6875 349.777344 L 35.777344 349.777344 C 31.203125 349.777344 26.8125 347.960938 23.578125 344.722656 C 20.34375 341.488281 18.527344 337.101562 18.527344 332.527344 L 18.527344 32.988281 C 18.527344 28.410156 20.34375 24.023438 23.578125 20.789062 C 26.8125 17.554688 31.203125 15.738281 35.777344 15.738281 Z M 35.777344 15.738281 " clip-rule="nonzero"/></clipPath><clipPath id="52e85e6984"><path d="M 99 117 L 287.371094 117 L 287.371094 324.75 L 99 324.75 Z M 99 117 " clip-rule="nonzero"/></clipPath><clipPath id="08f4946af0"><path d="M 92.371094 36 L 272 36 L 272 315 L 92.371094 315 Z M 92.371094 36 " clip-rule="nonzero"/></clipPath></defs><rect x="-37.5" width="450" fill="#ffffff" y="-37.499999" height="449.999989" fill-opacity="1"/><rect x="-37.5" width="450" fill="#ffffff" y="-37.499999" height="449.999989" fill-opacity="1"/><g clip-path="url(#c0eb716d93)"><g clip-path="url(#e4f1675e27)"><path fill="#a6a6a6" d="M 18.527344 15.738281 L 360.394531 15.738281 L 360.394531 349.777344 L 18.527344 349.777344 Z M 18.527344 15.738281 " fill-opacity="1" fill-rule="nonzero"/></g></g><g clip-path="url(#52e85e6984)"><path fill="#4f1c51" d="M 271.277344 117.90625 L 263.980469 279.238281 C 263.980469 295.484375 259.535156 307.125 243.289062 307.125 L 105.976562 314.757812 C 103.765625 314.757812 101.613281 314.511719 99.542969 314.050781 C 104.933594 320.28125 112.902344 324.21875 121.785156 324.21875 L 257.671875 324.21875 C 273.914062 324.21875 287.085938 311.050781 287.085938 294.804688 L 287.085938 117.90625 L 271.277344 117.90625 " fill-opacity="1" fill-rule="nonzero"/></g><g clip-path="url(#08f4946af0)"><path fill="#ffffff" d="M 238.148438 211.601562 C 227.851562 211.601562 219.507812 202.882812 219.507812 192.132812 C 219.507812 181.378906 227.851562 172.664062 238.148438 172.664062 C 248.445312 172.664062 256.789062 181.378906 256.789062 192.132812 C 256.789062 202.882812 248.445312 211.601562 238.148438 211.601562 Z M 197.773438 274.398438 C 160.386719 274.398438 130.078125 244.089844 130.078125 206.703125 C 130.078125 205.902344 130.097656 205.101562 130.125 204.3125 C 141.085938 231.789062 173.734375 251.722656 212.300781 251.722656 C 227.855469 251.722656 242.445312 248.476562 255.039062 242.808594 C 243.050781 261.789062 221.882812 274.398438 197.773438 274.398438 Z M 117.90625 218.445312 C 116.789062 215.945312 116.164062 213.179688 116.164062 210.265625 C 116.164062 199.171875 125.160156 190.175781 136.253906 190.175781 C 142.5 190.175781 148.078125 193.027344 151.765625 197.496094 C 148.324219 195.285156 144.238281 193.996094 139.84375 193.996094 C 127.65625 193.996094 117.777344 203.878906 117.777344 216.066406 C 117.777344 216.871094 117.820312 217.660156 117.90625 218.445312 Z M 192.558594 180.535156 C 192.558594 191.285156 184.214844 200.003906 173.917969 200.003906 C 163.625 200.003906 155.277344 191.285156 155.277344 180.535156 C 155.277344 169.78125 163.625 161.066406 173.917969 161.066406 C 184.214844 161.066406 192.558594 169.78125 192.558594 180.535156 Z M 154.625 69.253906 C 164.332031 53.300781 176.800781 44.515625 189.730469 44.515625 C 202.65625 44.515625 215.125 53.300781 224.832031 69.253906 C 232.960938 82.613281 238.253906 99.492188 240.230469 117.90625 L 143.75 117.90625 C 143.472656 121.652344 143.332031 125.457031 143.332031 129.300781 C 143.332031 132.046875 143.40625 134.78125 143.550781 137.484375 C 143.675781 139.863281 141.792969 141.859375 139.414062 141.859375 C 139.117188 141.859375 138.828125 141.828125 138.546875 141.765625 C 138.425781 139.289062 138.363281 136.785156 138.363281 134.269531 C 138.363281 109.578125 144.136719 86.492188 154.625 69.253906 Z M 253.953125 117.90625 C 254.210938 121.640625 254.351562 125.445312 254.351562 129.300781 C 254.351562 132.210938 254.273438 135.09375 254.121094 137.941406 C 254.003906 140.136719 252.1875 141.859375 249.980469 141.859375 C 249.714844 141.859375 249.453125 141.832031 249.203125 141.78125 C 249.316406 139.300781 249.378906 136.800781 249.378906 134.269531 C 249.378906 80.125 222.671875 36.230469 189.730469 36.230469 C 160.175781 36.230469 135.644531 71.550781 130.90625 117.90625 L 92.371094 117.90625 L 92.371094 294.804688 C 92.371094 302.164062 95.074219 308.890625 99.542969 314.050781 C 101.613281 314.511719 103.765625 314.757812 105.976562 314.757812 L 241.863281 314.757812 C 258.109375 314.757812 271.277344 301.589844 271.277344 285.34375 L 271.277344 117.90625 L 253.953125 117.90625 " fill-opacity="1" fill-rule="nonzero"/></g></svg>