<svg xmlns="http://www.w3.org/2000/svg" xmlns:xlink="http://www.w3.org/1999/xlink" width="184" zoomAndPan="magnify" viewBox="0 0 138 30.000001" height="40" preserveAspectRatio="xMidYMid meet" version="1.0"><defs><g/><clipPath id="903ea26e32"><path d="M 38.046875 4.765625 L 54.742188 4.765625 L 54.742188 24.363281 L 38.046875 24.363281 Z M 38.046875 4.765625 " clip-rule="nonzero"/></clipPath><clipPath id="a87f80d3b9"><path d="M 81 8 L 96.875 8 L 96.875 24.828125 L 81 24.828125 Z M 81 8 " clip-rule="nonzero"/></clipPath><clipPath id="078761886d"><path d="M 80.90625 1.601562 L 96 1.601562 L 96 24.828125 L 80.90625 24.828125 Z M 80.90625 1.601562 " clip-rule="nonzero"/></clipPath><clipPath id="888e4306c3"><path d="M 111.386719 16.554688 L 118.5 16.554688 L 118.5 24.222656 L 111.386719 24.222656 Z M 111.386719 16.554688 " clip-rule="nonzero"/></clipPath><clipPath id="65539aeb9f"><path d="M 114.945312 16.554688 C 112.980469 16.554688 111.386719 18.269531 111.386719 20.386719 C 111.386719 22.503906 112.980469 24.21875 114.945312 24.21875 C 116.90625 24.21875 118.5 22.503906 118.5 20.386719 C 118.5 18.269531 116.90625 16.554688 114.945312 16.554688 Z M 114.945312 16.554688 " clip-rule="nonzero"/></clipPath></defs><g fill="#ffffff" fill-opacity="1"><g transform="translate(6.058137, 23.98157)"><g><path d="M 2.6875 0 L 2.6875 -18.484375 L 9.84375 -18.484375 C 11.625 -18.484375 13.046875 -18.035156 14.109375 -17.140625 C 15.179688 -16.253906 15.71875 -15.066406 15.71875 -13.578125 C 15.71875 -12.671875 15.503906 -11.875 15.078125 -11.1875 C 14.648438 -10.507812 14.0625 -9.972656 13.3125 -9.578125 C 14.257812 -9.191406 14.984375 -8.617188 15.484375 -7.859375 C 15.984375 -7.109375 16.234375 -6.210938 16.234375 -5.171875 C 16.234375 -3.566406 15.691406 -2.300781 14.609375 -1.375 C 13.523438 -0.457031 12.050781 0 10.1875 0 Z M 5.015625 -2.171875 L 10.140625 -2.171875 C 11.335938 -2.171875 12.253906 -2.441406 12.890625 -2.984375 C 13.535156 -3.523438 13.859375 -4.289062 13.859375 -5.28125 C 13.859375 -6.269531 13.53125 -7.03125 12.875 -7.5625 C 12.226562 -8.101562 11.304688 -8.375 10.109375 -8.375 L 5.015625 -8.375 Z M 5.015625 -10.484375 L 9.796875 -10.484375 C 10.941406 -10.484375 11.816406 -10.738281 12.421875 -11.25 C 13.023438 -11.757812 13.328125 -12.472656 13.328125 -13.390625 C 13.328125 -14.316406 13.019531 -15.035156 12.40625 -15.546875 C 11.789062 -16.054688 10.921875 -16.3125 9.796875 -16.3125 L 5.015625 -16.3125 Z M 5.015625 -10.484375 "/></g></g></g><g fill="#ffffff" fill-opacity="1"><g transform="translate(23.778581, 23.98157)"><g><path d="M 2.453125 0 L 2.453125 -13.703125 L 4.28125 -13.703125 L 4.546875 -11.328125 C 5.035156 -12.148438 5.644531 -12.75 6.375 -13.125 C 7.101562 -13.507812 8.050781 -13.703125 9.21875 -13.703125 L 10.453125 -13.703125 L 10.453125 -11.640625 L 9.109375 -11.640625 C 8.285156 -11.640625 7.535156 -11.472656 6.859375 -11.140625 C 6.191406 -10.804688 5.660156 -10.25 5.265625 -9.46875 C 4.867188 -8.695312 4.671875 -7.660156 4.671875 -6.359375 L 4.671875 0 Z M 2.453125 0 "/></g></g></g><g fill="#ffffff" fill-opacity="1"><g transform="translate(35.29291, 23.98157)"><g><path d="M 2.453125 0 L 2.453125 -13.703125 L 4.671875 -13.703125 L 4.671875 0 Z M 1.765625 -17.6875 C 1.765625 -18.195312 1.925781 -18.613281 2.25 -18.9375 C 2.582031 -19.269531 3.019531 -19.4375 3.5625 -19.4375 C 4.113281 -19.4375 4.546875 -19.269531 4.859375 -18.9375 C 5.171875 -18.613281 5.328125 -18.195312 5.328125 -17.6875 C 5.328125 -17.195312 5.171875 -16.785156 4.859375 -16.453125 C 4.546875 -16.128906 4.113281 -15.96875 3.5625 -15.96875 C 3.019531 -15.96875 2.582031 -16.128906 2.25 -16.453125 C 1.925781 -16.785156 1.765625 -17.195312 1.765625 -17.6875 Z M 1.765625 -17.6875 "/></g></g></g><g fill="#ffffff" fill-opacity="1"><g transform="translate(42.423347, 23.98157)"><g><path d="M 2.453125 0 L 2.453125 -19.546875 L 4.671875 -19.546875 L 4.671875 0 Z M 2.453125 0 "/></g></g></g><g fill="#ffffff" fill-opacity="1"><g transform="translate(49.553785, 23.98157)"><g><path d="M 8.390625 0.34375 C 7.023438 0.34375 5.8125 0.0390625 4.75 -0.5625 C 3.695312 -1.175781 2.867188 -2.023438 2.265625 -3.109375 C 1.671875 -4.203125 1.375 -5.453125 1.375 -6.859375 C 1.375 -8.273438 1.671875 -9.519531 2.265625 -10.59375 C 2.867188 -11.675781 3.703125 -12.519531 4.765625 -13.125 C 5.828125 -13.738281 7.046875 -14.046875 8.421875 -14.046875 C 9.878906 -14.046875 11.144531 -13.703125 12.21875 -13.015625 C 13.300781 -12.328125 14.125 -11.378906 14.6875 -10.171875 C 15.257812 -8.972656 15.519531 -7.570312 15.46875 -5.96875 L 3.625 -5.96875 C 3.789062 -4.6875 4.304688 -3.660156 5.171875 -2.890625 C 6.035156 -2.128906 7.117188 -1.75 8.421875 -1.75 C 9.316406 -1.75 10.132812 -1.941406 10.875 -2.328125 C 11.613281 -2.710938 12.195312 -3.265625 12.625 -3.984375 L 15.125 -3.984375 C 14.582031 -2.648438 13.710938 -1.59375 12.515625 -0.8125 C 11.316406 -0.0390625 9.941406 0.34375 8.390625 0.34375 Z M 3.640625 -7.921875 L 13.25 -7.921875 C 13.019531 -9.171875 12.46875 -10.15625 11.59375 -10.875 C 10.726562 -11.601562 9.671875 -11.96875 8.421875 -11.96875 C 7.148438 -11.96875 6.082031 -11.597656 5.21875 -10.859375 C 4.363281 -10.117188 3.835938 -9.140625 3.640625 -7.921875 Z M 3.640625 -7.921875 "/></g></g></g><g fill="#ffffff" fill-opacity="1"><g transform="translate(65.663257, 23.98157)"><g><path d="M 0.890625 0 L 6.15625 -6.96875 L 1.15625 -13.703125 L 3.828125 -13.703125 L 5.96875 -10.796875 L 7.609375 -8.53125 L 9.265625 -10.796875 L 11.40625 -13.703125 L 14.046875 -13.703125 L 9.0625 -6.96875 L 14.3125 0 L 11.625 0 L 9.296875 -3.109375 L 7.625 -5.40625 L 5.9375 -3.109375 L 3.59375 0 Z M 0.890625 0 "/></g></g></g><g clip-path="url(#903ea26e32)"><path fill="#ffffff" d="M 44.957031 8.414062 C 44.976562 8.335938 45.015625 8.203125 45.0625 8.085938 C 45.113281 7.96875 45.179688 7.859375 45.21875 7.765625 C 45.261719 7.667969 45.277344 7.578125 45.265625 7.507812 C 45.253906 7.433594 45.214844 7.375 45.179688 7.308594 C 45.144531 7.246094 45.109375 7.175781 45.089844 7.140625 C 45.070312 7.105469 45.070312 7.105469 45.074219 7.148438 C 45.078125 7.191406 45.078125 7.277344 45.085938 7.351562 C 45.09375 7.425781 45.101562 7.484375 45.097656 7.546875 C 45.09375 7.609375 45.070312 7.675781 45.046875 7.71875 C 45.015625 7.761719 44.976562 7.785156 44.921875 7.808594 C 44.867188 7.835938 44.796875 7.867188 44.742188 7.910156 C 44.695312 7.949219 44.664062 8.007812 44.648438 8 C 44.632812 7.992188 44.628906 7.925781 44.65625 7.863281 C 44.683594 7.800781 44.734375 7.75 44.785156 7.6875 C 44.835938 7.625 44.882812 7.554688 44.890625 7.464844 C 44.898438 7.375 44.863281 7.261719 44.835938 7.121094 C 44.804688 6.984375 44.773438 6.820312 44.753906 6.679688 C 44.734375 6.539062 44.722656 6.425781 44.722656 6.300781 C 44.71875 6.171875 44.722656 6.027344 44.75 5.914062 C 44.78125 5.796875 44.835938 5.710938 44.863281 5.664062 C 44.890625 5.621094 44.890625 5.621094 44.898438 5.566406 C 44.902344 5.511719 44.914062 5.402344 44.964844 5.289062 C 45.015625 5.175781 45.105469 5.066406 45.242188 4.96875 C 45.378906 4.875 45.570312 4.800781 45.757812 4.785156 C 45.945312 4.765625 46.128906 4.808594 46.308594 4.882812 C 46.480469 4.953125 46.644531 5.058594 46.789062 5.210938 C 46.929688 5.363281 47.058594 5.554688 47.152344 5.699219 C 47.25 5.84375 47.316406 5.945312 47.371094 6.003906 C 47.425781 6.070312 47.472656 6.097656 47.519531 6.125 C 47.566406 6.152344 47.617188 6.175781 47.671875 6.191406 C 47.726562 6.203125 47.785156 6.207031 47.835938 6.203125 C 47.886719 6.199219 47.933594 6.183594 47.953125 6.175781 C 47.976562 6.167969 47.976562 6.167969 47.964844 6.175781 C 47.957031 6.1875 47.941406 6.207031 47.925781 6.222656 C 47.910156 6.238281 47.894531 6.25 47.863281 6.261719 C 47.832031 6.273438 47.789062 6.289062 47.761719 6.300781 C 47.734375 6.308594 47.722656 6.308594 47.71875 6.3125 C 47.710938 6.3125 47.710938 6.3125 47.726562 6.339844 C 47.742188 6.367188 47.773438 6.421875 47.796875 6.488281 C 47.816406 6.554688 47.828125 6.632812 47.867188 6.714844 C 47.90625 6.796875 47.972656 6.878906 48.019531 6.964844 C 48.066406 7.050781 48.09375 7.140625 48.128906 7.199219 C 48.167969 7.261719 48.214844 7.300781 48.257812 7.320312 C 48.300781 7.339844 48.34375 7.347656 48.386719 7.34375 C 48.425781 7.34375 48.46875 7.335938 48.484375 7.335938 C 48.503906 7.335938 48.496094 7.34375 48.480469 7.351562 C 48.464844 7.363281 48.445312 7.378906 48.417969 7.390625 C 48.390625 7.40625 48.355469 7.414062 48.332031 7.417969 C 48.308594 7.421875 48.292969 7.417969 48.285156 7.417969 C 48.28125 7.417969 48.285156 7.421875 48.300781 7.429688 C 48.316406 7.4375 48.347656 7.453125 48.367188 7.460938 C 48.386719 7.46875 48.398438 7.46875 48.386719 7.472656 C 48.378906 7.476562 48.347656 7.488281 48.320312 7.496094 C 48.292969 7.503906 48.269531 7.503906 48.246094 7.5 C 48.214844 7.496094 48.183594 7.484375 48.167969 7.480469 C 48.152344 7.476562 48.152344 7.476562 48.15625 7.492188 C 48.164062 7.511719 48.175781 7.550781 48.191406 7.585938 C 48.207031 7.625 48.222656 7.65625 48.277344 7.703125 C 48.335938 7.75 48.433594 7.8125 48.601562 7.914062 C 48.765625 8.011719 49 8.148438 49.269531 8.273438 C 49.539062 8.398438 49.84375 8.507812 50.039062 8.582031 C 50.234375 8.65625 50.320312 8.695312 50.394531 8.695312 C 50.46875 8.695312 50.527344 8.652344 50.730469 8.515625 C 50.933594 8.375 51.273438 8.136719 51.566406 7.902344 C 51.855469 7.664062 52.097656 7.433594 52.226562 7.277344 C 52.351562 7.121094 52.367188 7.042969 52.414062 6.949219 C 52.457031 6.855469 52.535156 6.746094 52.613281 6.664062 C 52.691406 6.585938 52.769531 6.53125 52.847656 6.472656 C 52.925781 6.414062 53.003906 6.351562 53.0625 6.316406 C 53.121094 6.285156 53.160156 6.28125 53.183594 6.300781 C 53.207031 6.316406 53.210938 6.351562 53.210938 6.371094 C 53.214844 6.386719 53.214844 6.386719 53.242188 6.394531 C 53.265625 6.402344 53.316406 6.410156 53.34375 6.425781 C 53.367188 6.4375 53.359375 6.457031 53.359375 6.464844 C 53.355469 6.472656 53.355469 6.472656 53.371094 6.488281 C 53.386719 6.503906 53.417969 6.53125 53.429688 6.5625 C 53.445312 6.589844 53.4375 6.617188 53.433594 6.628906 C 53.429688 6.640625 53.429688 6.640625 53.4375 6.667969 C 53.441406 6.691406 53.453125 6.742188 53.453125 6.808594 C 53.453125 6.875 53.445312 6.957031 53.4375 7.011719 C 53.429688 7.066406 53.417969 7.089844 53.414062 7.101562 C 53.410156 7.113281 53.410156 7.113281 53.425781 7.183594 C 53.441406 7.253906 53.472656 7.390625 53.503906 7.601562 C 53.539062 7.8125 53.570312 8.097656 53.589844 8.238281 C 53.605469 8.378906 53.605469 8.378906 53.648438 8.351562 C 53.691406 8.328125 53.78125 8.273438 53.832031 8.25 C 53.886719 8.230469 53.902344 8.246094 53.917969 8.304688 C 53.933594 8.367188 53.945312 8.476562 53.976562 8.652344 C 54.007812 8.828125 54.054688 9.074219 54.113281 9.375 C 54.171875 9.671875 54.25 10.027344 54.324219 10.398438 C 54.394531 10.765625 54.460938 11.148438 54.519531 11.542969 C 54.582031 11.9375 54.636719 12.339844 54.667969 12.539062 C 54.695312 12.742188 54.695312 12.742188 54.574219 12.746094 C 54.457031 12.746094 54.21875 12.753906 54.101562 12.757812 C 53.980469 12.761719 53.980469 12.757812 53.839844 12.777344 C 53.695312 12.796875 53.414062 12.839844 53.269531 12.859375 C 53.222656 12.867188 53.191406 12.867188 53.167969 12.875 C 53.167969 12.84375 53.167969 12.800781 53.167969 12.738281 C 53.171875 12.59375 53.175781 12.351562 53.1875 12.046875 C 53.203125 11.738281 53.222656 11.371094 53.246094 10.992188 C 53.265625 10.613281 53.289062 10.234375 53.308594 9.867188 C 53.328125 9.5 53.34375 9.152344 53.347656 8.949219 C 53.351562 8.746094 53.347656 8.695312 53.324219 9.011719 C 53.300781 9.328125 53.257812 10.019531 53.21875 10.621094 C 53.183594 11.226562 53.15625 11.746094 53.140625 12.113281 C 53.128906 12.449219 53.125 12.78125 53.136719 13.117188 C 53.140625 13.207031 53.140625 13.316406 53.144531 13.367188 C 53.144531 13.421875 53.144531 13.421875 52.996094 13.421875 C 52.84375 13.421875 52.539062 13.421875 52.386719 13.421875 C 52.234375 13.421875 52.234375 13.417969 52.175781 13.402344 C 52.117188 13.382812 51.996094 13.34375 51.894531 13.3125 C 51.789062 13.273438 51.699219 13.242188 51.65625 13.226562 C 51.613281 13.210938 51.613281 13.210938 51.628906 13.054688 C 51.644531 12.898438 51.667969 12.589844 51.761719 11.832031 C 51.855469 11.078125 52.011719 9.878906 52.089844 9.28125 C 52.164062 8.679688 52.164062 8.679688 52.207031 8.679688 C 52.25 8.675781 52.335938 8.671875 52.378906 8.667969 C 52.421875 8.664062 52.421875 8.664062 52.453125 8.511719 C 52.484375 8.359375 52.546875 8.050781 52.582031 7.878906 C 52.621094 7.703125 52.636719 7.664062 52.644531 7.644531 C 52.652344 7.625 52.652344 7.625 52.574219 7.703125 C 52.496094 7.78125 52.339844 7.929688 52.140625 8.136719 C 51.945312 8.339844 51.710938 8.597656 51.46875 8.824219 C 51.226562 9.050781 50.980469 9.242188 50.8125 9.359375 C 50.648438 9.480469 50.5625 9.523438 50.464844 9.539062 C 50.363281 9.554688 50.246094 9.542969 50.066406 9.507812 C 49.886719 9.472656 49.640625 9.414062 49.429688 9.359375 C 49.214844 9.300781 49.035156 9.242188 48.878906 9.1875 C 48.722656 9.128906 48.589844 9.074219 48.523438 9.042969 C 48.457031 9.015625 48.457031 9.015625 48.460938 9.089844 C 48.46875 9.167969 48.484375 9.316406 48.5 9.492188 C 48.515625 9.664062 48.535156 9.863281 48.492188 10.050781 C 48.449219 10.242188 48.347656 10.421875 48.246094 10.574219 C 48.144531 10.722656 48.039062 10.847656 47.960938 10.988281 C 47.882812 11.132812 47.824219 11.296875 47.792969 11.441406 C 47.761719 11.585938 47.753906 11.710938 47.722656 11.796875 C 47.6875 11.882812 47.628906 11.925781 47.601562 11.945312 C 47.570312 11.96875 47.570312 11.96875 47.5625 12.097656 C 47.554688 12.226562 47.535156 12.484375 47.511719 12.699219 C 47.488281 12.910156 47.460938 13.082031 47.414062 13.253906 C 47.367188 13.425781 47.308594 13.597656 47.300781 13.765625 C 47.300781 13.929688 47.355469 14.082031 47.429688 14.332031 C 47.503906 14.582031 47.597656 14.925781 47.765625 15.296875 C 47.929688 15.671875 48.171875 16.074219 48.355469 16.402344 C 48.539062 16.730469 48.664062 16.984375 48.734375 17.199219 C 48.804688 17.414062 48.816406 17.585938 48.769531 17.757812 C 48.726562 17.925781 48.625 18.089844 48.5 18.199219 C 48.375 18.308594 48.222656 18.359375 48.070312 18.382812 C 47.929688 18.398438 47.804688 18.394531 47.664062 18.382812 C 47.585938 18.375 47.484375 18.363281 47.324219 18.332031 C 47.160156 18.296875 46.9375 18.246094 46.769531 18.203125 C 46.601562 18.160156 46.488281 18.125 46.429688 18.109375 C 46.371094 18.089844 46.308594 18.066406 46.25 18.046875 C 46.082031 17.988281 45.746094 17.875 45.433594 17.769531 C 45.117188 17.664062 44.828125 17.570312 44.621094 17.515625 C 44.417969 17.464844 44.300781 17.457031 44.203125 17.46875 C 44.105469 17.476562 44.03125 17.507812 43.898438 17.578125 C 43.765625 17.652344 43.578125 17.773438 43.476562 17.851562 C 43.375 17.925781 43.363281 17.960938 43.375 18.035156 C 43.386719 18.109375 43.429688 18.222656 43.464844 18.316406 C 43.503906 18.40625 43.539062 18.484375 43.558594 18.5625 C 43.574219 18.640625 43.582031 18.71875 43.566406 18.765625 C 43.554688 18.808594 43.527344 18.824219 43.460938 18.804688 C 43.394531 18.789062 43.289062 18.742188 43.167969 18.65625 C 43.046875 18.574219 42.90625 18.453125 42.796875 18.332031 C 42.6875 18.207031 42.605469 18.078125 42.582031 17.972656 C 42.554688 17.867188 42.578125 17.78125 42.648438 17.65625 C 42.71875 17.535156 42.832031 17.375 42.898438 17.246094 C 42.960938 17.121094 42.976562 17.027344 42.96875 16.953125 C 42.960938 16.875 42.925781 16.8125 42.90625 16.773438 C 42.882812 16.734375 42.871094 16.71875 42.789062 16.71875 C 42.707031 16.726562 42.554688 16.75 42.480469 16.761719 C 42.40625 16.773438 42.40625 16.773438 42.40625 16.757812 C 42.40625 16.742188 42.40625 16.714844 42.410156 16.699219 C 42.410156 16.683594 42.410156 16.683594 42.472656 16.667969 C 42.535156 16.652344 42.664062 16.617188 42.753906 16.585938 C 42.847656 16.550781 42.898438 16.519531 42.953125 16.464844 C 43.007812 16.410156 43.058594 16.332031 43.125 16.292969 C 43.1875 16.25 43.265625 16.238281 43.371094 16.253906 C 43.480469 16.269531 43.625 16.308594 43.714844 16.347656 C 43.808594 16.390625 43.84375 16.4375 43.875 16.46875 C 43.902344 16.503906 43.921875 16.519531 44 16.554688 C 44.078125 16.585938 44.21875 16.640625 44.425781 16.683594 C 44.632812 16.726562 44.910156 16.765625 45.164062 16.78125 C 45.417969 16.796875 45.644531 16.796875 45.757812 16.792969 C 45.875 16.792969 45.875 16.792969 45.753906 16.628906 C 45.636719 16.464844 45.394531 16.140625 45.191406 15.835938 C 44.992188 15.53125 44.828125 15.246094 44.714844 14.980469 C 44.601562 14.714844 44.539062 14.464844 44.535156 14.195312 C 44.535156 13.921875 44.589844 13.628906 44.707031 13.328125 C 44.820312 13.027344 44.988281 12.71875 45.101562 12.476562 C 45.207031 12.234375 45.261719 12.054688 45.277344 11.839844 C 45.292969 11.621094 45.277344 11.367188 45.28125 11.148438 C 45.285156 10.925781 45.304688 10.738281 45.304688 10.523438 C 45.304688 10.304688 45.285156 10.066406 45.277344 9.945312 C 45.265625 9.824219 45.265625 9.824219 45.191406 9.929688 C 45.117188 10.035156 44.964844 10.242188 44.835938 10.429688 C 44.707031 10.617188 44.597656 10.78125 44.488281 10.9375 C 44.378906 11.09375 44.273438 11.242188 44.121094 11.402344 C 43.964844 11.566406 43.761719 11.742188 43.546875 11.925781 C 43.332031 12.109375 43.101562 12.304688 42.878906 12.496094 C 42.652344 12.691406 42.429688 12.886719 42.269531 13.03125 C 42.109375 13.171875 42.023438 13.257812 41.925781 13.316406 C 41.824219 13.378906 41.722656 13.417969 41.632812 13.449219 C 41.542969 13.476562 41.472656 13.496094 41.433594 13.507812 C 41.398438 13.519531 41.398438 13.519531 41.398438 13.582031 C 41.402344 13.644531 41.410156 13.769531 41.429688 13.898438 C 41.453125 14.03125 41.488281 14.171875 41.527344 14.324219 C 41.566406 14.484375 41.613281 14.660156 41.636719 14.746094 C 41.660156 14.835938 41.660156 14.832031 41.773438 14.832031 C 41.886719 14.832031 42.109375 14.828125 42.222656 14.828125 C 42.335938 14.828125 42.335938 14.828125 42.335938 14.855469 C 42.335938 14.882812 42.335938 14.945312 42.335938 14.972656 C 42.335938 15 42.335938 15 42.339844 15.007812 C 42.34375 15.007812 42.34375 15.015625 42.378906 15.015625 C 42.414062 15.019531 42.472656 15.015625 42.507812 15.015625 C 42.539062 15.015625 42.539062 15.015625 42.515625 15.167969 C 42.492188 15.324219 42.441406 15.632812 42.40625 15.9375 C 42.371094 16.246094 42.34375 16.546875 42.324219 17 C 42.300781 17.453125 42.28125 18.066406 42.28125 18.496094 C 42.277344 18.925781 42.292969 19.183594 42.300781 19.3125 C 42.308594 19.4375 42.308594 19.4375 41.867188 19.539062 C 41.425781 19.636719 40.539062 19.832031 40.09375 19.933594 C 39.648438 20.027344 39.640625 20.027344 39.511719 19.96875 C 39.382812 19.914062 39.140625 19.808594 39.019531 19.753906 C 38.957031 19.726562 38.925781 19.714844 38.910156 19.710938 C 38.90625 19.710938 38.902344 19.707031 38.898438 19.703125 C 38.871094 19.695312 38.824219 19.679688 38.800781 19.660156 C 38.773438 19.640625 38.769531 19.625 38.824219 19.328125 C 38.878906 19.039062 38.992188 18.472656 39.160156 17.71875 C 39.328125 16.96875 39.546875 16.027344 39.65625 15.558594 C 39.769531 15.085938 39.769531 15.085938 39.917969 15.09375 C 40.066406 15.101562 40.363281 15.113281 40.746094 15.117188 C 41.125 15.121094 41.597656 15.117188 41.742188 15.105469 C 41.886719 15.09375 41.714844 15.078125 41.332031 15.070312 C 40.949219 15.0625 40.359375 15.0625 40.054688 15.054688 C 39.746094 15.046875 39.722656 15.03125 39.632812 14.984375 C 39.542969 14.941406 39.390625 14.867188 39.378906 14.875 C 39.371094 14.882812 39.507812 14.96875 39.578125 15.019531 C 39.652344 15.070312 39.65625 15.078125 39.664062 15.101562 C 39.667969 15.125 39.667969 15.160156 39.617188 15.386719 C 39.5625 15.613281 39.453125 16.035156 39.351562 16.484375 C 39.246094 16.933594 39.144531 17.410156 39.0625 17.820312 C 38.980469 18.222656 38.914062 18.558594 38.863281 18.832031 C 38.808594 19.105469 38.773438 19.3125 38.753906 19.445312 C 38.738281 19.578125 38.738281 19.628906 38.742188 19.65625 C 38.75 19.6875 38.757812 19.691406 38.789062 19.703125 C 38.804688 19.710938 38.828125 19.71875 38.847656 19.726562 L 38.738281 19.792969 C 38.707031 19.808594 38.707031 19.808594 38.597656 19.703125 C 38.484375 19.59375 38.265625 19.375 38.15625 19.269531 C 38.046875 19.160156 38.046875 19.160156 38.230469 18.417969 C 38.417969 17.679688 38.789062 16.195312 38.980469 15.453125 C 39.167969 14.710938 39.171875 14.710938 39.324219 14.722656 C 39.476562 14.734375 39.777344 14.757812 39.929688 14.761719 C 40.082031 14.765625 40.082031 14.75 40.179688 14.527344 C 40.277344 14.300781 40.476562 13.859375 40.585938 13.621094 C 40.699219 13.378906 40.722656 13.339844 40.730469 13.316406 C 40.742188 13.292969 40.738281 13.289062 40.726562 13.242188 C 40.714844 13.199219 40.6875 13.113281 40.714844 13.042969 C 40.738281 12.972656 40.820312 12.914062 40.914062 12.839844 C 41.007812 12.757812 41.117188 12.652344 41.214844 12.625 C 41.3125 12.59375 41.402344 12.640625 41.519531 12.671875 C 41.640625 12.703125 41.789062 12.722656 41.886719 12.699219 C 41.984375 12.671875 42.03125 12.597656 42.25 12.28125 C 42.464844 11.949219 42.855469 11.382812 43.140625 11.015625 C 43.425781 10.648438 43.605469 10.484375 43.761719 10.320312 C 43.921875 10.160156 44.054688 10.003906 44.207031 9.792969 C 44.355469 9.585938 44.523438 9.328125 44.644531 9.125 C 44.765625 8.921875 44.839844 8.777344 44.882812 8.695312 C 44.925781 8.609375 44.9375 8.578125 44.9375 8.550781 C 44.941406 8.519531 44.9375 8.492188 44.957031 8.414062 Z M 47.597656 18.40625 C 47.589844 18.429688 47.582031 18.460938 47.570312 18.515625 C 47.535156 18.65625 47.472656 18.945312 47.398438 19.296875 C 47.324219 19.648438 47.246094 20.066406 47.144531 20.5 C 47.046875 20.933594 46.933594 21.382812 46.867188 21.699219 C 46.804688 22.019531 46.789062 22.207031 46.804688 22.449219 C 46.820312 22.691406 46.871094 22.984375 46.914062 23.15625 C 46.960938 23.328125 47 23.375 47.074219 23.441406 C 47.152344 23.511719 47.269531 23.597656 47.386719 23.675781 C 47.5 23.75 47.609375 23.816406 47.6875 23.871094 C 47.765625 23.929688 47.8125 23.976562 47.816406 24.019531 C 47.824219 24.0625 47.789062 24.105469 47.730469 24.140625 C 47.671875 24.171875 47.582031 24.195312 47.449219 24.203125 C 47.316406 24.210938 47.136719 24.203125 46.992188 24.1875 C 46.84375 24.171875 46.730469 24.15625 46.640625 24.109375 C 46.550781 24.0625 46.488281 23.992188 46.410156 23.867188 C 46.332031 23.742188 46.242188 23.566406 46.132812 23.40625 C 46.023438 23.242188 45.890625 23.101562 45.820312 23.03125 C 45.753906 22.964844 45.753906 22.964844 45.765625 23.078125 C 45.773438 23.191406 45.792969 23.421875 45.800781 23.535156 C 45.808594 23.652344 45.804688 23.652344 45.78125 23.652344 C 45.757812 23.652344 45.710938 23.652344 45.6875 23.652344 C 45.664062 23.648438 45.667969 23.640625 45.660156 23.535156 C 45.652344 23.429688 45.636719 23.226562 45.621094 23.097656 C 45.605469 22.972656 45.589844 22.925781 45.558594 22.855469 C 45.527344 22.785156 45.484375 22.691406 45.476562 22.59375 C 45.464844 22.496094 45.492188 22.386719 45.539062 22.289062 C 45.585938 22.195312 45.652344 22.109375 45.714844 22.054688 C 45.78125 22.003906 45.839844 21.980469 45.871094 21.972656 C 45.902344 21.960938 45.902344 21.960938 45.925781 21.894531 C 45.949219 21.828125 45.996094 21.695312 46.027344 21.460938 C 46.058594 21.226562 46.078125 20.894531 46.09375 20.523438 C 46.113281 20.152344 46.128906 19.746094 46.183594 19.375 C 46.246094 19.003906 46.347656 18.671875 46.394531 18.460938 C 46.4375 18.269531 46.429688 18.183594 46.425781 18.140625 C 46.492188 18.160156 46.59375 18.191406 46.710938 18.222656 C 46.855469 18.261719 47.023438 18.300781 47.183594 18.332031 C 47.335938 18.367188 47.488281 18.390625 47.597656 18.40625 Z M 40.242188 14.65625 C 40.28125 14.542969 40.367188 14.316406 40.40625 14.21875 C 40.445312 14.117188 40.4375 14.148438 40.410156 14.265625 C 40.386719 14.386719 40.34375 14.59375 40.324219 14.695312 C 40.304688 14.800781 40.304688 14.800781 40.285156 14.796875 C 40.265625 14.796875 40.234375 14.789062 40.214844 14.78125 C 40.199219 14.773438 40.199219 14.773438 40.242188 14.65625 Z M 40.484375 14.8125 C 40.53125 14.8125 40.613281 14.8125 40.660156 14.8125 C 40.699219 14.8125 40.699219 14.8125 40.703125 14.765625 C 40.703125 14.714844 40.707031 14.621094 40.707031 14.457031 C 40.707031 14.296875 40.707031 14.070312 40.699219 13.976562 C 40.691406 13.882812 40.671875 13.921875 40.632812 14.058594 C 40.59375 14.195312 40.539062 14.433594 40.5 14.578125 C 40.46875 14.71875 40.453125 14.761719 40.445312 14.785156 C 40.4375 14.808594 40.4375 14.8125 40.4375 14.8125 C 40.4375 14.8125 40.441406 14.8125 40.484375 14.8125 Z M 40.886719 14.804688 C 40.964844 14.804688 41.113281 14.800781 41.191406 14.796875 C 41.269531 14.796875 41.273438 14.792969 41.269531 14.675781 C 41.265625 14.554688 41.257812 14.324219 41.253906 14.109375 C 41.25 13.894531 41.25 13.699219 41.25 13.601562 C 41.25 13.503906 41.25 13.507812 41.171875 13.542969 C 41.09375 13.574219 40.945312 13.644531 40.871094 13.6875 C 40.792969 13.730469 40.792969 13.746094 40.792969 13.921875 C 40.792969 14.101562 40.792969 14.4375 40.792969 14.613281 C 40.792969 14.78125 40.796875 14.792969 40.800781 14.796875 C 40.800781 14.804688 40.808594 14.804688 40.886719 14.804688 Z M 41.445312 14.773438 C 41.472656 14.773438 41.507812 14.765625 41.527344 14.765625 C 41.542969 14.757812 41.542969 14.753906 41.519531 14.652344 C 41.492188 14.550781 41.4375 14.347656 41.40625 14.230469 C 41.375 14.117188 41.367188 14.085938 41.367188 14.132812 C 41.363281 14.179688 41.363281 14.308594 41.367188 14.433594 C 41.375 14.554688 41.382812 14.667969 41.390625 14.726562 C 41.394531 14.78125 41.398438 14.78125 41.402344 14.78125 C 41.410156 14.78125 41.421875 14.777344 41.445312 14.773438 Z M 52.730469 7.5625 C 52.757812 7.535156 52.808594 7.476562 52.832031 7.453125 C 52.859375 7.421875 52.859375 7.421875 52.851562 7.488281 C 52.84375 7.554688 52.828125 7.6875 52.800781 7.886719 C 52.777344 8.085938 52.738281 8.355469 52.71875 8.492188 C 52.699219 8.625 52.699219 8.625 52.667969 8.628906 C 52.632812 8.632812 52.566406 8.632812 52.53125 8.636719 C 52.5 8.636719 52.5 8.636719 52.503906 8.601562 C 52.507812 8.5625 52.519531 8.492188 52.546875 8.34375 C 52.574219 8.195312 52.621094 7.964844 52.652344 7.828125 C 52.679688 7.691406 52.691406 7.644531 52.695312 7.621094 C 52.707031 7.59375 52.707031 7.59375 52.730469 7.5625 Z M 52.972656 8.382812 C 52.992188 8.382812 53.03125 8.386719 53.050781 8.386719 C 53.070312 8.390625 53.070312 8.390625 53.082031 8.320312 C 53.09375 8.253906 53.117188 8.121094 53.140625 7.929688 C 53.160156 7.734375 53.179688 7.484375 53.179688 7.371094 C 53.183594 7.261719 53.171875 7.292969 53.152344 7.359375 C 53.132812 7.429688 53.101562 7.53125 53.066406 7.695312 C 53.03125 7.859375 52.992188 8.082031 52.972656 8.207031 C 52.949219 8.332031 52.941406 8.359375 52.941406 8.371094 C 52.941406 8.382812 52.949219 8.378906 52.972656 8.382812 Z M 52.972656 7.378906 C 52.988281 7.367188 53.019531 7.34375 53.035156 7.335938 C 53.050781 7.328125 53.054688 7.332031 53.023438 7.460938 C 52.996094 7.589844 52.941406 7.839844 52.914062 7.949219 C 52.886719 8.058594 52.890625 8.027344 52.902344 7.914062 C 52.910156 7.800781 52.925781 7.609375 52.9375 7.507812 C 52.945312 7.40625 52.949219 7.398438 52.949219 7.394531 C 52.949219 7.394531 52.953125 7.390625 52.972656 7.378906 Z M 53.242188 8.390625 C 53.257812 8.390625 53.296875 8.390625 53.3125 8.386719 C 53.332031 8.386719 53.332031 8.386719 53.332031 8.398438 C 53.335938 8.414062 53.335938 8.441406 53.339844 8.453125 C 53.34375 8.46875 53.34375 8.46875 53.367188 8.453125 C 53.394531 8.441406 53.445312 8.414062 53.46875 8.398438 C 53.496094 8.386719 53.496094 8.386719 53.472656 8.214844 C 53.449219 8.042969 53.40625 7.695312 53.378906 7.546875 C 53.351562 7.402344 53.339844 7.453125 53.316406 7.625 C 53.292969 7.796875 53.257812 8.085938 53.238281 8.230469 C 53.21875 8.378906 53.21875 8.382812 53.21875 8.390625 C 53.21875 8.394531 53.222656 8.394531 53.242188 8.390625 Z M 53.242188 8.390625 " fill-opacity="1" fill-rule="evenodd"/></g><g fill="#ffffff" fill-opacity="1"><g transform="translate(84.493491, 24.325604)"><g/></g></g><g fill="#ffffff" fill-opacity="1"><g transform="translate(88.846992, 24.325604)"><g/></g></g><g fill="#ffffff" fill-opacity="1"><g transform="translate(93.200493, 24.325604)"><g/></g></g><g fill="#ffffff" fill-opacity="1"><g transform="translate(97.554567, 24.325604)"><g><path d="M 1.640625 0 L 1.640625 -13 L 3.109375 -13 L 3.109375 -7.921875 C 3.503906 -8.410156 3.976562 -8.769531 4.53125 -9 C 5.082031 -9.226562 5.648438 -9.34375 6.234375 -9.34375 C 7.441406 -9.34375 8.382812 -8.960938 9.0625 -8.203125 C 9.738281 -7.453125 10.078125 -6.425781 10.078125 -5.125 L 10.078125 0 L 8.609375 0 L 8.609375 -4.984375 C 8.609375 -5.898438 8.378906 -6.617188 7.921875 -7.140625 C 7.460938 -7.671875 6.835938 -7.9375 6.046875 -7.9375 C 5.191406 -7.9375 4.488281 -7.640625 3.9375 -7.046875 C 3.382812 -6.460938 3.109375 -5.664062 3.109375 -4.65625 L 3.109375 0 Z M 1.640625 0 "/></g></g></g><g fill="#ffffff" fill-opacity="1"><g transform="translate(109.087831, 24.325604)"><g><path d="M 5.75 0.234375 C 4.800781 0.234375 3.960938 0.03125 3.234375 -0.375 C 2.503906 -0.789062 1.929688 -1.359375 1.515625 -2.078125 C 1.109375 -2.804688 0.90625 -3.632812 0.90625 -4.5625 C 0.90625 -5.5 1.109375 -6.320312 1.515625 -7.03125 C 1.929688 -7.75 2.503906 -8.3125 3.234375 -8.71875 C 3.960938 -9.132812 4.800781 -9.34375 5.75 -9.34375 C 6.695312 -9.34375 7.53125 -9.132812 8.25 -8.71875 C 8.976562 -8.3125 9.546875 -7.75 9.953125 -7.03125 C 10.367188 -6.320312 10.578125 -5.5 10.578125 -4.5625 C 10.578125 -3.632812 10.367188 -2.804688 9.953125 -2.078125 C 9.546875 -1.359375 8.976562 -0.789062 8.25 -0.375 C 7.53125 0.03125 6.695312 0.234375 5.75 0.234375 Z M 2.390625 -4.5625 C 2.390625 -3.894531 2.53125 -3.304688 2.8125 -2.796875 C 3.101562 -2.285156 3.5 -1.890625 4 -1.609375 C 4.507812 -1.328125 5.09375 -1.1875 5.75 -1.1875 C 6.394531 -1.1875 6.96875 -1.328125 7.46875 -1.609375 C 7.976562 -1.890625 8.375 -2.285156 8.65625 -2.796875 C 8.945312 -3.304688 9.09375 -3.894531 9.09375 -4.5625 C 9.09375 -5.226562 8.945312 -5.8125 8.65625 -6.3125 C 8.375 -6.820312 7.976562 -7.21875 7.46875 -7.5 C 6.96875 -7.789062 6.394531 -7.9375 5.75 -7.9375 C 5.09375 -7.9375 4.507812 -7.789062 4 -7.5 C 3.5 -7.21875 3.101562 -6.820312 2.8125 -6.3125 C 2.53125 -5.8125 2.390625 -5.226562 2.390625 -4.5625 Z M 2.390625 -4.5625 "/></g></g></g><g fill="#ffffff" fill-opacity="1"><g transform="translate(120.568438, 24.325604)"><g><path d="M 1.796875 0 L 1.796875 -12.296875 L 5.953125 -12.296875 C 6.878906 -12.296875 7.679688 -12.125 8.359375 -11.78125 C 9.046875 -11.445312 9.578125 -10.972656 9.953125 -10.359375 C 10.328125 -9.742188 10.515625 -9.015625 10.515625 -8.171875 C 10.515625 -7.328125 10.328125 -6.597656 9.953125 -5.984375 C 9.578125 -5.367188 9.046875 -4.890625 8.359375 -4.546875 C 7.679688 -4.210938 6.878906 -4.046875 5.953125 -4.046875 L 3.34375 -4.046875 L 3.34375 0 Z M 3.34375 -5.484375 L 5.921875 -5.484375 C 7.929688 -5.484375 8.9375 -6.375 8.9375 -8.15625 C 8.9375 -9.925781 7.929688 -10.8125 5.921875 -10.8125 L 3.34375 -10.8125 Z M 3.34375 -5.484375 "/></g></g></g><g clip-path="url(#a87f80d3b9)"><path fill="#ffffff" d="M 95.402344 8.238281 L 94.808594 21.308594 C 94.808594 22.625 94.449219 23.566406 93.132812 23.566406 L 82.007812 24.1875 C 81.828125 24.1875 81.65625 24.167969 81.488281 24.128906 C 81.925781 24.632812 82.570312 24.953125 83.289062 24.953125 L 94.296875 24.953125 C 95.613281 24.953125 96.679688 23.886719 96.679688 22.570312 L 96.679688 8.238281 L 95.402344 8.238281 " fill-opacity="1" fill-rule="nonzero"/></g><g clip-path="url(#078761886d)"><path fill="#4f1c51" d="M 92.714844 15.828125 C 91.882812 15.828125 91.207031 15.121094 91.207031 14.25 C 91.207031 13.378906 91.882812 12.675781 92.714844 12.675781 C 93.550781 12.675781 94.226562 13.378906 94.226562 14.25 C 94.226562 15.121094 93.550781 15.828125 92.714844 15.828125 Z M 89.445312 20.917969 C 86.417969 20.917969 83.960938 18.460938 83.960938 15.433594 C 83.960938 15.367188 83.964844 15.300781 83.964844 15.238281 C 84.851562 17.464844 87.5 19.078125 90.621094 19.078125 C 91.882812 19.078125 93.066406 18.816406 94.085938 18.355469 C 93.113281 19.894531 91.398438 20.917969 89.445312 20.917969 Z M 82.976562 16.382812 C 82.886719 16.179688 82.835938 15.957031 82.835938 15.722656 C 82.835938 14.824219 83.5625 14.09375 84.460938 14.09375 C 84.96875 14.09375 85.421875 14.324219 85.71875 14.6875 C 85.441406 14.507812 85.109375 14.402344 84.753906 14.402344 C 83.765625 14.402344 82.964844 15.203125 82.964844 16.191406 C 82.964844 16.257812 82.96875 16.320312 82.976562 16.382812 Z M 89.023438 13.3125 C 89.023438 14.183594 88.347656 14.890625 87.511719 14.890625 C 86.679688 14.890625 86.003906 14.183594 86.003906 13.3125 C 86.003906 12.441406 86.679688 11.734375 87.511719 11.734375 C 88.347656 11.734375 89.023438 12.441406 89.023438 13.3125 Z M 85.949219 4.296875 C 86.738281 3.003906 87.746094 2.292969 88.792969 2.292969 C 89.839844 2.292969 90.851562 3.003906 91.636719 4.296875 C 92.296875 5.378906 92.726562 6.746094 92.886719 8.238281 L 85.070312 8.238281 C 85.046875 8.542969 85.035156 8.851562 85.035156 9.160156 C 85.035156 9.382812 85.042969 9.605469 85.054688 9.824219 C 85.0625 10.015625 84.910156 10.179688 84.71875 10.179688 C 84.695312 10.179688 84.671875 10.175781 84.648438 10.171875 C 84.636719 9.96875 84.632812 9.769531 84.632812 9.5625 C 84.632812 7.5625 85.101562 5.695312 85.949219 4.296875 Z M 93.996094 8.238281 C 94.019531 8.542969 94.03125 8.847656 94.03125 9.160156 C 94.03125 9.398438 94.023438 9.632812 94.011719 9.863281 C 94 10.039062 93.855469 10.179688 93.675781 10.179688 C 93.652344 10.179688 93.632812 10.175781 93.613281 10.171875 C 93.621094 9.972656 93.625 9.769531 93.625 9.5625 C 93.625 5.179688 91.464844 1.621094 88.792969 1.621094 C 86.398438 1.621094 84.414062 4.484375 84.027344 8.238281 L 80.90625 8.238281 L 80.90625 22.570312 C 80.90625 23.164062 81.125 23.710938 81.488281 24.128906 C 81.65625 24.167969 81.828125 24.1875 82.007812 24.1875 L 93.019531 24.1875 C 94.332031 24.1875 95.402344 23.121094 95.402344 21.804688 L 95.402344 8.238281 L 93.996094 8.238281 " fill-opacity="1" fill-rule="nonzero"/></g><g clip-path="url(#888e4306c3)"><g clip-path="url(#65539aeb9f)"><path fill="#4f1c51" d="M 111.386719 16.554688 L 118.5 16.554688 L 118.5 24.222656 L 111.386719 24.222656 Z M 111.386719 16.554688 " fill-opacity="1" fill-rule="nonzero"/></g></g></svg>